<svg width="134" height="98" viewBox="0 0 134 98" fill="none" xmlns="http://www.w3.org/2000/svg">
<path d="M12.5 0H124V98H12.5L0 88.5V12.5L12.5 0Z" fill="#C2C2C2"/>
<path d="M19 14L11 22V56.5H47L54.5 49V14H19Z" fill="#D9D9D9"/>
<path d="M61.9 28V17.5H67.12C70.135 17.5 71.86 19.075 71.86 21.115C71.86 23.155 70.135 24.715 67.12 24.715H64.63V28H61.9ZM67.555 22.285C68.455 22.285 68.92 21.625 68.92 21.115C68.92 20.605 68.455 19.93 67.555 19.93H64.63V22.285H67.555ZM72.8968 17.5H75.6268V23.2C75.6268 24.85 76.4368 25.825 77.7268 25.825C79.0318 25.825 79.8268 24.85 79.8268 23.2V17.5H82.5718V23.2C82.5718 26.41 80.7718 28.24 77.7268 28.24C74.6818 28.24 72.8968 26.41 72.8968 23.2V17.5ZM84.2096 17.5H86.9396L91.0346 23.635V17.5H93.7646V28H91.0346L86.9396 21.88V28H84.2096V17.5ZM95.1718 22.75C95.1718 19.27 97.1668 17.275 100.647 17.275C103.377 17.275 105.177 18.49 105.852 20.68L103.032 21.535C102.672 20.365 101.802 19.69 100.647 19.69C99.0268 19.69 98.1118 20.8 98.1118 22.75C98.1118 24.715 99.0268 25.825 100.647 25.825C101.802 25.825 102.672 25.15 103.032 23.98L105.852 24.835C105.177 27.025 103.377 28.24 100.647 28.24C97.1668 28.24 95.1718 26.245 95.1718 22.75ZM107.12 17.5H109.85V21.55H114.08V17.5H116.825V28H114.08V23.965H109.85V28H107.12V17.5Z" fill="#1E1D2C" fill-opacity="0.760784"/>
<path d="M19.5 8L5 23V29L6.5 31.0001H15.5L23.0714 20.853L29.5429 20.8529V12.0588L25 8H19.5Z" fill="#1E1D2C" fill-opacity="0.760784"/>
<path d="M117 67H12V88H114L117 84.2785V67Z" fill="#1E1D2C" stroke="#1E1D2C"/>
<path d="M107 85V70L114 77.5L107 85Z" fill="white" stroke="white" stroke-opacity="0.55"/>
</svg>
