<svg width="223" height="130" viewBox="0 0 223 130" fill="none" xmlns="http://www.w3.org/2000/svg">
<path d="M223 130V0H96H3.5L0 5V100.5L3.5 105.5H62L79 130H223Z" fill="#C2C2C2"/>
<path d="M212 8H7V48H206.143L212 40.9114V8Z" fill="#1E1D2C" stroke="#1E1D2C"/>
<path d="M195 38V18L205 28L195 38Z" fill="white" stroke="white" stroke-opacity="0.55"/>
<path d="M212 55H7V95H206.143L212 87.9114V55Z" fill="#1E1D2C" stroke="#1E1D2C"/>
<path d="M195 85V65L205 75L195 85Z" fill="white" stroke="white" stroke-opacity="0.55"/>
<path d="M89.995 109.5L93.52 120H90.625L89.86 117.72H85.735L84.955 120H82.075L85.585 109.5H89.995ZM86.53 115.29H89.05L87.925 111.93H87.655L86.53 115.29ZM93.7596 114.75C93.7596 111.27 95.7546 109.275 99.2346 109.275C101.965 109.275 103.765 110.49 104.44 112.68L101.62 113.535C101.26 112.365 100.39 111.69 99.2346 111.69C97.6146 111.69 96.6996 112.8 96.6996 114.75C96.6996 116.715 97.6146 117.825 99.2346 117.825C100.39 117.825 101.26 117.15 101.62 115.98L104.44 116.835C103.765 119.025 101.965 120.24 99.2346 120.24C95.7546 120.24 93.7596 118.245 93.7596 114.75ZM115.218 109.5V111.93H111.453V120.015H108.708V111.93H104.958V109.5H115.218ZM116.284 109.5H119.014V120H116.284V109.5ZM125.865 120.24C122.535 120.24 120.39 118.08 120.39 114.765C120.39 111.435 122.535 109.275 125.865 109.275C129.195 109.275 131.355 111.435 131.355 114.765C131.355 118.08 129.195 120.24 125.865 120.24ZM123.33 114.765C123.33 116.625 124.32 117.825 125.865 117.825C127.41 117.825 128.4 116.625 128.4 114.765C128.4 112.89 127.41 111.69 125.865 111.69C124.32 111.69 123.33 112.89 123.33 114.765ZM132.734 109.5H135.464L139.559 115.635V109.5H142.289V120H139.559L135.464 113.88V120H132.734V109.5ZM148.721 109.275C151.226 109.275 153.281 110.385 153.806 112.11L150.971 112.95C150.776 112.26 150.176 111.69 148.721 111.69C147.656 111.69 146.816 111.885 146.816 112.575C146.816 114.585 154.046 112.035 154.046 116.805C154.046 118.89 152.021 120.24 148.826 120.24C146.306 120.24 144.116 119.13 143.591 117.405L146.411 116.565C146.621 117.255 147.386 117.825 148.826 117.825C150.251 117.825 151.091 117.36 151.091 116.805C151.091 114.99 143.936 117.405 143.936 112.71C143.936 110.49 145.856 109.275 148.721 109.275Z" fill="black"/>
<rect x="162" y="107" width="50" height="16" fill="#1E1D2C" fill-opacity="0.35"/>
<rect x="186" y="107" width="26" height="16" fill="#1E1D2C" fill-opacity="0.35"/>
</svg>
