<svg width="380" height="136" viewBox="0 0 380 136" fill="none" xmlns="http://www.w3.org/2000/svg">
<path d="M260 0H0V136H169L188 102.5H368.5L379.5 88V0H260Z" fill="#C2C2C2"/>
<path d="M18.9 122V111.5H24.12C27.135 111.5 28.86 113.075 28.86 115.115C28.86 117.155 27.135 118.715 24.12 118.715H21.63V122H18.9ZM24.555 116.285C25.455 116.285 25.92 115.625 25.92 115.115C25.92 114.605 25.455 113.93 24.555 113.93H21.63V116.285H24.555ZM36.2489 111.5L39.7739 122H36.8789L36.1139 119.72H31.9889L31.2089 122H28.3289L31.8389 111.5H36.2489ZM32.7839 117.29H35.3039L34.1789 113.93H33.9089L32.7839 117.29ZM40.7701 122V111.5H45.9901C49.0051 111.5 50.7301 113.075 50.7301 115.115C50.7301 116.48 49.9501 117.635 48.5251 118.25L50.6701 122H47.5501L45.6601 118.715H43.5001V122H40.7701ZM46.4251 116.285C47.3251 116.285 47.7901 115.625 47.7901 115.115C47.7901 114.605 47.3251 113.93 46.4251 113.93H43.5001V116.285H46.4251ZM61.6034 111.5V113.93H57.8384V122.015H55.0934V113.93H51.3434V111.5H61.6034ZM66.0895 118.025L61.7095 111.5H64.9645L67.4695 115.31L69.9595 111.5H73.2295L68.8345 118.025V122H66.0895V118.025Z" fill="black"/>
<path d="M22 95V100H8L8 87H13L13 95H22Z" fill="#1E1D2C" fill-opacity="0.5"/>
<path d="M361 8V3H375V16H370V8H361Z" fill="#1E1D2C" fill-opacity="0.5"/>
<rect x="87" y="109" width="70" height="16" fill="#1E1D2C" fill-opacity="0.35"/>
<rect x="131" y="109" width="26" height="16" fill="#1E1D2C" fill-opacity="0.35"/>
</svg>
