<svg width="504" height="62" viewBox="0 0 504 62" fill="none" xmlns="http://www.w3.org/2000/svg">
<path d="M0 27V-18H504V27L486.5 44.5H323.5L313 27H162.5L148 44.5H17.5L0 27Z" fill="#C2C2C2"/>
<path d="M208.1 10.1C208.1 11.46 207.3 12.32 206.12 12.82C207.52 13.32 208.48 14.24 208.48 15.8C208.48 18.58 206.18 20 202.16 20H195.2V6H201.76C205.78 6 208.1 7.4 208.1 10.1ZM198.84 11.26H202.34C203.52 11.26 204.18 10.9 204.18 10.24C204.18 9.6 203.52 9.24 202.34 9.24H198.84V11.26ZM198.84 16.78H202.74C203.9 16.78 204.56 16.38 204.56 15.64C204.56 14.9 203.9 14.48 202.74 14.48H198.84V16.78ZM219.836 6L224.536 20H220.676L219.656 16.96H214.156L213.116 20H209.276L213.956 6H219.836ZM215.216 13.72H218.576L217.076 9.24H216.716L215.216 13.72ZM236.689 6V9.24H231.669V20.02H228.009V9.24H223.009V6H236.689ZM250.79 6V9.24H245.77V20.02H242.11V9.24H237.11V6H250.79ZM252.212 20V6H255.852V16.78H264.172V20H252.212ZM265.591 6H277.751V9.24H269.231V11.4H276.631V14.62H269.231V16.78H277.751V20H265.591V6Z" fill="black"/>
<path d="M195.5 61.5H276" stroke="#C2C2C2"/>
</svg>
