<svg xmlns="http://www.w3.org/2000/svg" width="345" height="127" viewBox="0 0 345 127" version="1.1"><path d="M 56 33.668 C 42.843 38.265, 34.761 49.787, 34.724 64 C 34.679 80.907, 46.946 94.433, 63.500 95.729 C 75.015 96.631, 87.004 89.606, 92.835 78.540 C 95.169 74.110, 95.490 72.350, 95.490 64 C 95.490 55.650, 95.169 53.890, 92.835 49.460 C 85.633 35.792, 69.597 28.917, 56 33.668 M 54.462 38.302 C 44.970 42.842, 38 53.721, 38 64 C 38 74.634, 45.354 85.755, 55.183 89.983 C 65.089 94.245, 77.435 91.512, 85.196 83.339 C 92.436 75.716, 94.600 62.278, 90.162 52.500 C 85.546 42.329, 77.671 36.902, 66.644 36.290 C 60.638 35.956, 58.697 36.277, 54.462 38.302 M 144.441 44.294 C 144.168 45.006, 144.069 52.318, 144.222 60.544 C 144.454 73.048, 144.746 75.500, 146 75.500 C 147.045 75.500, 147.592 74.235, 147.804 71.328 C 148.317 64.281, 150.231 64.044, 154.956 70.440 C 158.688 75.492, 162 77.616, 162 74.957 C 162 74.384, 160.134 71.389, 157.853 68.302 C 155.056 64.514, 153.998 62.280, 154.603 61.432 C 155.097 60.741, 157 58.336, 158.834 56.088 C 161.807 52.443, 161.951 52, 160.167 52 C 158.985 52, 156.091 54.354, 153.097 57.750 L 148.028 63.500 148.014 53.250 C 148.002 44.718, 147.743 43, 146.469 43 C 145.626 43, 144.714 43.582, 144.441 44.294 M 120.500 47.195 C 117.697 48.784, 117.033 50.027, 117.015 53.711 C 116.996 57.825, 119.804 60.461, 125.820 61.976 C 128.380 62.621, 131.042 63.620, 131.737 64.196 C 133.728 65.849, 133.213 69.737, 130.777 71.443 C 127.465 73.764, 124.122 73.336, 121.151 70.212 C 117.758 66.644, 114.552 66.923, 116.245 70.639 C 118.504 75.597, 127.027 77.589, 132.928 74.537 C 136.055 72.920, 137 71.196, 137 67.109 C 137 62.939, 135.076 61.147, 127.994 58.723 C 122.785 56.940, 121.435 56.044, 121.173 54.195 C 120.708 50.913, 122.712 49, 126.614 49 C 128.900 49, 130.385 49.643, 131.232 51 C 132.691 53.337, 136 53.684, 136 51.500 C 136 50.675, 135.100 49.100, 134 48 C 131.726 45.726, 123.913 45.260, 120.500 47.195 M 197.702 48.020 C 194.114 50.842, 192.388 59.282, 194.014 66.058 C 196.085 74.690, 202.413 77.944, 210.532 74.551 C 213.989 73.107, 214 73.081, 214 66.551 L 214 60 209 60 C 204.667 60, 204 60.267, 204 62 C 204 63.556, 204.667 64, 207 64 C 209.766 64, 210 64.275, 210 67.525 C 210 70.364, 209.514 71.234, 207.500 72 C 204.093 73.295, 200.208 71.678, 198.982 68.453 C 198.442 67.032, 198 63.179, 198 59.889 C 198 54.873, 198.396 53.513, 200.455 51.455 C 203.575 48.334, 205.450 48.359, 208.656 51.565 C 210.066 52.975, 211.846 53.889, 212.610 53.596 C 214.594 52.835, 214.343 51.662, 211.548 48.646 C 208.404 45.254, 201.608 44.947, 197.702 48.020 M 74.135 48.520 C 72.285 49.334, 68.363 50, 65.420 50 C 60.882 50, 59.542 50.463, 56.596 53.050 C 50.537 58.370, 49.516 66.573, 54.176 72.497 C 55.928 74.725, 56.055 75.350, 54.900 76.073 C 53.926 76.683, 53.225 76.348, 52.597 74.975 C 51.372 72.294, 50.165 72.492, 49.411 75.498 C 48.585 78.790, 49.514 81.002, 51.719 80.991 C 55.293 80.972, 63.823 74.978, 70.579 67.738 C 83.737 53.636, 85.619 43.468, 74.135 48.520 M 75.459 52.067 C 75.096 52.653, 75.040 53.373, 75.333 53.667 C 76.050 54.383, 78 53.121, 78 51.941 C 78 50.663, 76.274 50.748, 75.459 52.067 M 167 52.564 C 167 52.873, 169.045 57.913, 171.543 63.763 C 174.042 69.613, 175.955 75.315, 175.793 76.434 C 175.632 77.553, 174.055 79.376, 172.289 80.484 C 168.679 82.750, 168.009 85, 170.944 85 C 174.866 85, 177.979 80.574, 183.505 67.145 C 186.527 59.799, 189 53.387, 189 52.895 C 189 52.403, 188.200 52, 187.222 52 C 185.898 52, 184.596 54.291, 182.113 60.991 C 180.280 65.937, 178.451 69.779, 178.048 69.530 C 177.646 69.281, 175.831 65.235, 174.015 60.539 C 171.515 54.071, 170.263 52, 168.857 52 C 167.836 52, 167 52.254, 167 52.564 M 222.655 53.829 C 221.745 54.835, 221 56.185, 221 56.829 C 221 58.540, 224.685 58.262, 225.362 56.500 C 226.159 54.422, 232.589 54.487, 233.393 56.582 C 234.706 60.002, 234.001 60.745, 228.990 61.227 C 222.627 61.838, 220 64.110, 220 69 C 220 75.470, 225.972 78.170, 231.195 74.061 C 233.634 72.143, 233.678 72.143, 235.320 74.061 C 237.237 76.300, 241 76.661, 241 74.607 C 241 73.841, 240.325 72.955, 239.500 72.638 C 238.339 72.193, 238 70.248, 238 64.031 C 238 57.333, 237.668 55.668, 236 54 C 233.301 51.301, 225.039 51.195, 222.655 53.829 M 245 64 C 245 74, 245.250 76, 246.500 76 C 247.688 76, 248 74.569, 248 69.125 C 248 60.517, 248.880 55.983, 250.685 55.291 C 253.037 54.388, 253.481 55.789, 254 65.749 C 254.334 72.160, 254.915 75.478, 255.750 75.754 C 256.670 76.058, 257 74.328, 257 69.208 C 257 60.442, 257.877 55.984, 259.743 55.268 C 262.190 54.329, 262.969 57.088, 262.985 66.750 C 262.997 74.299, 263.276 76, 264.500 76 C 265.741 76, 266 74.133, 266 65.200 C 266 58.133, 265.585 53.985, 264.800 53.200 C 263.115 51.515, 259.488 51.707, 257.948 53.563 C 256.771 54.981, 256.569 54.981, 255.775 53.563 C 254.598 51.459, 250.346 51.577, 249.080 53.750 C 248.109 55.417, 248.059 55.417, 248.030 53.750 C 248.014 52.788, 247.325 52, 246.500 52 C 245.250 52, 245 54, 245 64 M 274.521 54.388 C 267.648 61.261, 272.192 76, 281.185 76 C 284.709 76, 289.537 73.648, 290.347 71.537 C 291.113 69.543, 288.193 69.540, 285.559 71.532 C 281.609 74.519, 277.190 72.629, 275.551 67.250 C 274.880 65.049, 275.036 65, 282.766 65 C 287.111 65, 290.904 64.763, 291.194 64.473 C 292.398 63.269, 290.053 55.461, 287.984 53.786 C 284.631 51.071, 277.520 51.389, 274.521 54.388 M 301.223 53.557 C 298.970 55.135, 298.259 59.285, 299.821 61.745 C 300.256 62.430, 303.034 63.813, 305.994 64.819 C 308.954 65.825, 311.828 67.365, 312.380 68.240 C 315.011 72.412, 305.892 74.947, 302.263 71.052 C 300.961 69.655, 300.032 69.377, 298.974 70.070 C 297.746 70.875, 297.968 71.450, 300.306 73.518 C 306.854 79.311, 319.218 73.945, 316.378 66.542 C 315.649 64.642, 311.791 62.519, 307.319 61.556 C 303.532 60.741, 301.731 58.864, 302.590 56.627 C 303.428 54.441, 309.761 54.474, 312.195 56.676 C 315.057 59.266, 316.846 56.846, 314.100 54.100 C 311.536 51.536, 304.529 51.241, 301.223 53.557 M 59.569 56.573 C 57.636 58.507, 57.620 59.106, 59.441 61.559 C 60.593 63.109, 61.247 63.278, 62.691 62.398 C 65.289 60.815, 65.529 57.353, 63.130 56.070 C 61.600 55.251, 60.776 55.367, 59.569 56.573 M 277.217 56.250 C 276.652 56.938, 276.035 58.400, 275.845 59.500 C 275.538 61.281, 276.129 61.533, 281.250 61.800 C 286.704 62.084, 287 61.979, 287 59.750 C 287 58.457, 286.460 56.860, 285.800 56.200 C 284.224 54.624, 278.526 54.658, 277.217 56.250 M 78.160 62.701 C 78.072 63.362, 74.872 67.074, 71.048 70.951 C 64.143 77.953, 64.117 78, 67.144 78 C 73.334 78, 79.497 70.911, 78.719 64.686 C 78.499 62.934, 78.248 62.040, 78.160 62.701 M 225.605 65.299 C 223.003 67.202, 223.779 72.398, 226.729 72.817 C 229.444 73.203, 234 68.960, 234 66.045 C 234 64.397, 233.358 64, 230.691 64 C 228.871 64, 226.583 64.585, 225.605 65.299" stroke="none" fill="#ffffff" fill-rule="evenodd"/></svg>